<?xml version="1.0" encoding="UTF-8"?>
<svg width="123px" height="123px" viewBox="0 0 123 123" version="1.1" xmlns="http://www.w3.org/2000/svg" xmlns:xlink="http://www.w3.org/1999/xlink">
    <!-- Generator: Sketch 51.3 (57544) - http://www.bohemiancoding.com/sketch -->
    <title>Fill 1</title>
    <desc>Created with Sketch.</desc>
    <defs>
        <path d="M109.082493,46.2853014 C103.820048,42.1092561 101.136655,35.6314344 101.904719,28.9555586 C102.406617,24.589188 100.913965,20.302039 97.8064459,17.1959694 C94.6965118,14.0860354 90.4112951,12.593866 86.0449245,13.0957643 C79.3671164,13.8633451 72.8907439,11.1823675 68.7151816,5.91943931 C65.9829997,2.47571145 61.8958372,0.5 57.5009661,0.5 C53.1041628,0.5 49.0174833,2.47571145 46.2848184,5.91750708 C42.1092561,11.1804353 35.6328836,13.8633451 28.9570077,13.0957643 C24.5906371,12.5919338 20.3034882,14.0860354 17.1954864,17.1940372 C14.0879676,20.302039 12.5933829,24.589188 13.0952813,28.9555586 C13.8633451,35.6314344 11.1799522,42.1092561 5.91750708,46.2853014 C2.47571145,49.0174833 0.5,53.1065781 0.5,57.5009661 C0.5,61.8958372 2.47377922,65.9829997 5.91750708,68.7151816 C11.1799522,72.8931592 13.8633451,79.3690486 13.0952813,86.0449245 C12.5933829,90.4132273 14.0879676,94.698444 17.1940372,97.8064459 C20.3034882,100.913965 24.5925694,102.408549 28.9550755,101.904719 C35.6314344,101.136655 42.1092561,103.820048 46.2848184,109.082976 C49.0174833,112.526704 53.1041628,114.5 57.5009661,114.5 C61.8958372,114.5 65.9829997,112.526704 68.7151816,109.082976 C72.8926761,103.820048 79.3671164,101.138587 86.0449245,101.904719 C90.4112951,102.406617 94.698444,100.913965 97.8064459,97.8064459 C100.913965,94.698444 102.408549,90.4132273 101.904719,86.0449245 C101.136655,79.3709809 103.820048,72.891227 109.084425,68.7151816 C112.526221,65.9829997 114.5,61.8958372 114.5,57.5009661 C114.5,53.1046458 112.526221,49.0174833 109.082493,46.2853014 Z" id="path-1"></path>
        <filter x="-6.6%" y="-5.7%" width="114.9%" height="114.9%" filterUnits="objectBoundingBox" id="filter-2">
            <feOffset dx="1" dy="2" in="SourceAlpha" result="shadowOffsetOuter1"></feOffset>
            <feGaussianBlur stdDeviation="2.5" in="shadowOffsetOuter1" result="shadowBlurOuter1"></feGaussianBlur>
            <feColorMatrix values="0 0 0 0 0   0 0 0 0 0   0 0 0 0 0  0 0 0 0.0641417572 0" type="matrix" in="shadowBlurOuter1"></feColorMatrix>
        </filter>
    </defs>
    <g id="Page-1" stroke="none" stroke-width="1" fill="none" fill-rule="evenodd">
        <g id="anasayfa" transform="translate(-512.000000, -1908.000000)" fill-rule="nonzero">
            <g id="HİZMETLERİMİZ" transform="translate(390.000000, 1610.000000)">
                <g id="1hover" transform="translate(0.000000, 132.000000)">
                    <g id="Group-17" transform="translate(125.000000, 168.000000)">
                        <g id="Group-16">
                            <g id="Fill-1">
                                <use fill="black" fill-opacity="1" filter="url(#filter-2)" xlink:href="#path-1"></use>
                                <use fill="#FFFFFF" xlink:href="#path-1"></use>
                            </g>
                        </g>
                    </g>
                </g>
            </g>
        </g>
    </g>
</svg>